# xmcd
#
# Track frame offsets: 
#        150
#        12423
#        25464
#        38538
#        52312
#        64463
#        77841
#        89722
#        102736
#        117227
#        129286
#        142381
#        154929
#        167147
#        181868
#        194131
#        206703
#        219309
#        231532
#        245158
#
# Disc length: 3429 seconds
#
# Revision: 0
# Processed by: cddbd v1.5.2PL0 Copyright (c) Steve Scherf et al.
# Submitted via: ExactAudioCopy v1.0b4
#
DISCID=400d6314
DTITLE=201 Blues Hits - CD 5
DYEAR=2013
DGENRE=Blues
TTITLE0=Blind Boy Fuller - You've Got To Have Your Dollar
TTITLE1=Jimmy Witherspoon - When The Lights Go Out
TTITLE2=Willie Mahon - Seventh Son
TTITLE3=B.B. King - You Upset Me Baby
TTITLE4=Jimmy Rodgers - Chicago Bound
TTITLE5=Sleepy John Estes - Hobo Jungle Blues
TTITLE6=Buddy Guy - Try To Quit You Baby
TTITLE7=Joe Hill Louis - Joe's Jump
TTITLE8=Otis Rush - So Many Roads So Many Trains
TTITLE9=B.B. King - Don't You Want A Man Like Me
TTITLE10=Jimmy Reed - You Got Me Dizzy
TTITLE11=Blind Lemon Jefferson - One Dime Blues
TTITLE12=Junior Wells - Two Headed Woman
TTITLE13=Eddie Boyd - Third Degree
TTITLE14=Little Walter - My Babe
TTITLE15=Mississippi John Hurt - Candy Man Blues
TTITLE16=B.B. King - Why Do Things Happen To Me
TTITLE17=Bukka White - Parchman Farm Blues
TTITLE18=Bo Diddley - I'm A Man
TTITLE19=Sonny Boy Williamson - From The Bottom
EXTD=
EXTT0=
EXTT1=
EXTT2=
EXTT3=
EXTT4=
EXTT5=
EXTT6=
EXTT7=
EXTT8=
EXTT9=
EXTT10=
EXTT11=
EXTT12=
EXTT13=
EXTT14=
EXTT15=
EXTT16=
EXTT17=
EXTT18=
EXTT19=
PLAYORDER=
